<svg id="Layer_1" data-name="Layer 1" xmlns="http://www.w3.org/2000/svg" xmlns:xlink="http://www.w3.org/1999/xlink" viewBox="0 0 492.47 422.23"><defs><style>.cls-1{fill:#fff;}.cls-2{fill:#5899d5;}.cls-3{fill:#203d82;}.cls-4{fill:url(#linear-gradient);}.cls-5{fill:#abc227;}</style><linearGradient id="linear-gradient" x1="294.36" y1="167.61" x2="477.72" y2="167.61" gradientUnits="userSpaceOnUse"><stop offset="0" stop-color="#50579e"/><stop offset="1" stop-color="#203d82"/></linearGradient></defs><title>Artboard 1</title><path class="cls-1" d="M492.47,378c0,24.46-18.16,44.28-40.54,44.28H40.54C18.15,422.23,0,402.41,0,378V44.26C0,19.81,18.15,0,40.54,0H451.93c22.38,0,40.54,19.81,40.54,44.26Z"/><path class="cls-2" d="M477.48,272.73c0,16.69-17.05,30.21-38.07,30.21H53.15c-21,0-38.06-13.52-38.06-30.21V45.06c0-16.68,17-30.2,38.06-30.2H439.41c21,0,38.07,13.52,38.07,30.2Z"/><path class="cls-3" d="M15.62,276.85s.44,27,31.21,26.81c48.46-.27,86.43-.78,86.43-.78L106.48,148.56l9.65-.73L115,101.26l26.18.53L68.7,29.54,15.08,92.17v9.6H27.86l1.31,45,11.51.7Z"/><path class="cls-3" d="M56.39,390.24,56,364.12c-.09-7.81.49-16,.49-16s-3,7.23-6.16,13.47l-9.45,18.32-9.44-18.32c-3.37-6.49-6.08-13.39-6.08-13.39s.66,7.64.49,15.94l-.49,26.12H16.06l2-57.5h7.55L40.86,365.1l15.53-32.36H63.7l2,57.5Z"/><path class="cls-3" d="M84.89,340.54a5.91,5.91,0,0,1,0-11.82,5.91,5.91,0,0,1,0,11.82Zm-4.68,49.7V346.7h9.36v43.54Z"/><path class="cls-3" d="M104.19,390.24V331.1h9.37v59.14Z"/><path class="cls-3" d="M125.63,406.67a42.73,42.73,0,0,1-9-1.4v-7.64a54.4,54.4,0,0,0,7.4,1.15c2.79,0,4.11-1.07,4.11-4.68V346.7h9.36v47.4C137.46,404.45,132.2,406.67,125.63,406.67Zm7.15-66.13a5.91,5.91,0,0,1,0-11.82,5.91,5.91,0,0,1,0,11.82Z"/><path class="cls-3" d="M168,391.06a24.18,24.18,0,0,1-7.15-1l-4.35,9.2h-6.33l5.67-11.82c-3.86-3.13-6.65-8.79-6.65-19,0-19.3,10.43-22.59,18.81-22.59a24.64,24.64,0,0,1,7.22,1l4.36-9.2h6.32l-5.67,11.83c3.78,3.12,6.58,8.79,6.58,19C186.83,388.51,176.23,391.06,168,391.06Zm0-38.36c-4.52,0-9.45,1.32-9.45,15.77a28,28,0,0,0,1.48,10.1l12.07-25.21A9.93,9.93,0,0,0,168,352.7Zm8.13,5.42-12.08,25.22a9,9,0,0,0,4,.82c3.69,0,9.44-1.48,9.44-15.69A32,32,0,0,0,176.15,358.12Z"/><path class="cls-3" d="M214.26,337.83c-3.53,0-5.17,1.65-5.17,5.42v3.45h9.85l-1,6.66h-8.87v36.88h-9.37V353.36h-7.39V346.7h7.39v-3.45c0-9.85,6.08-13,13.47-13a26,26,0,0,1,9.45,1.8v7.15A34.59,34.59,0,0,0,214.26,337.83Z"/><path class="cls-3" d="M243.42,396c-2.71,9-7.89,10.68-13.06,10.68a33.85,33.85,0,0,1-8.46-1.4V398a51.71,51.71,0,0,0,7.72,1.23c3,0,4.84-2.22,6.08-7.31l.57-2.38-16.51-42.8h10.76l9.7,32.86L248,346.7h10.26Z"/><path class="cls-3" d="M281.69,355a9.11,9.11,0,0,0-6.24,2.55v32.69h-9.36V346.7h7.39l1.23,5.1s2.47-5.92,8.71-5.92a20.13,20.13,0,0,1,4.19.5v9.44A28.34,28.34,0,0,0,281.69,355Z"/><path class="cls-3" d="M308.47,391.06c-6.08,0-10.84-2-10.84-11.33V353.36h-7.39V346.7h7.39l.57-9.77,8.79-3.37V346.7h9.86l-1,6.66H307v26.45c0,3.2,1.4,3.61,3.53,3.61,2.31,0,7.56-1.48,7.56-1.48v7.48A32.37,32.37,0,0,1,308.47,391.06Z"/><path class="cls-3" d="M348.72,390.24l-1.07-4.52a14.88,14.88,0,0,1-11.5,5.34c-5.34,0-12.57-2.05-12.57-13.8,0-11.91,9.62-14,16.52-14h7.31v-4c0-5.17-2.71-5.67-7.23-5.67-5,0-11.91,2.06-12.73,2.3v-7.63a48.75,48.75,0,0,1,14.29-2.39c8.21,0,15,2.14,15,14.13v30.23Zm-7.06-46.49c-6.16,0-10.52-3.37-10.52-9.61s4.19-9.61,10.52-9.61c5.83,0,10.43,3.53,10.43,9.61S347.9,343.75,341.66,343.75Zm5.75,24.89-4.36.08c-6.65.16-10.1,1.64-10.1,8,0,6,2.71,7.06,6.08,7.06,4.52,0,8.38-3.37,8.38-3.37Zm-5.75-38.86c-2.47,0-4,1.48-4,4.36s1.64,4.35,4,4.35c2.21,0,3.94-1.4,3.94-4.35S344,329.78,341.66,329.78Z"/><path class="cls-3" d="M386.91,355a9.11,9.11,0,0,0-6.24,2.55v32.69h-9.36V346.7h7.39l1.23,5.1s2.47-5.92,8.71-5.92a20.13,20.13,0,0,1,4.19.5v9.44A28.34,28.34,0,0,0,386.91,355Z"/><path class="cls-3" d="M427.9,390.24V359c0-4.52-2.55-5.1-6-5.1-5.51,0-10.93,3.78-10.93,3.78v32.53h-9.36V346.7h7.47l1.65,5s6.49-5.84,14.29-5.84c7.22,0,12.24,3,12.24,13v31.38Z"/><path class="cls-3" d="M447,338.45a15,15,0,1,1,15,15A15.08,15.08,0,0,1,447,338.45Zm15-13a13,13,0,0,0,0,26c7.19,0,12.61-5.75,12.61-13S469.22,325.44,462,325.44Zm-3.46,22.13h-2V329.25h6.62c3.17,0,5.62,1.61,5.62,5.06,0,2.86-1.56,4.87-4.33,5.11l5.14,8.15h-2.5l-4.86-8.15h-3.69Zm0-9.92h4.14c2.4,0,4.09-.52,4.09-3.34,0-2.36-1.8-3.29-4.09-3.29h-4.14Z"/><path class="cls-4" d="M475.64,40.7c.47.17,1.52.38,1.57.88.73,7,.38,18.58.31,27.7-.36,42.23.48,139,.1,194.58,0,4.25.37,10.42-.5,14-2.1,8.61-9.5,18.7-22.32,22.41-8,2.32-16.72,2.38-25.4,2.38A135,135,0,1,1,475.64,40.7Z"/><path class="cls-1" d="M40.39,102.09l7,37H99.73l270,149s-109.17-77-53.5-192.66Z"/><path class="cls-5" d="M315.23,95.42s-23.09,30.92-21.38,78.23c1,27.63,11,58.84,39.47,90,0,0,34.46,36.93,90.91,39,6.59.25,16.08.72,21.6-.11a46.53,46.53,0,0,0,10.95-2.88S481.67,93.74,315.23,95.42Z"/><path class="cls-1" d="M440.81,288.59l-37.55-30.12,16.39-52.64L397.8,252.52S380.43,240,368.33,221.77l24.17-51.35-28.63,44s-14.42-18.48-18.69-34.31A421.32,421.32,0,0,0,363,133.48l-21.16,41.1s-16.22-22.16-13.34-59.5c0,0-14.39,33.51,26.73,98.17l-43-18.89,48.88,28.7,20.63,22.46-41.14-4.28,46.62,11.28s18.57,15.23,30.73,24.08l-43.53-.85,48.13,6.53,12.75,8.3Z"/></svg>