<svg id="Layer_1" data-name="Layer 1" xmlns="http://www.w3.org/2000/svg" viewBox="0 0 227.12 84.81"><defs><style>.cls-1{fill:#3c3c3c;}.cls-2{fill:#298fc2;}.cls-3{fill:#006a8e;}.cls-4{fill:#00b5e2;}</style></defs><title>Artboard 1</title><polygon class="cls-1" points="79.36 47.74 71.72 35.7 76.83 35.7 81.58 43.68 86.4 35.7 91.37 35.7 83.73 47.65 83.73 55.58 79.36 55.58 79.36 47.74"/><polygon class="cls-1" points="94.38 35.7 98.76 35.7 98.76 51.63 108.67 51.63 108.67 55.58 94.38 55.58 94.38 35.7"/><polygon class="cls-1" points="113.88 39.99 107.83 39.99 107.83 35.95 124.3 35.95 124.3 39.99 118.25 39.99 118.25 55.84 113.88 55.84 113.88 39.99"/><polygon class="cls-1" points="127.94 35.95 142.91 35.95 142.91 39.85 132.25 39.85 132.25 43.88 141.63 43.88 141.63 47.77 132.25 47.77 132.25 51.95 143.05 51.95 143.05 55.84 127.94 55.84 127.94 35.95"/><polygon class="cls-1" points="190.14 35.95 205.11 35.95 205.11 39.85 194.46 39.85 194.46 43.88 203.83 43.88 203.83 47.77 194.46 47.77 194.46 51.95 205.25 51.95 205.25 55.84 190.14 55.84 190.14 35.95"/><polygon class="cls-1" points="222.81 35.95 222.81 48.2 213.49 35.95 209.46 35.95 209.46 55.84 213.77 55.84 213.77 43.2 223.4 55.84 227.12 55.84 227.12 35.95 222.81 35.95"/><path class="cls-1" d="M69,76a5.72,5.72,0,0,0-1.32-1,7.86,7.86,0,0,0-1.61-.65,7.13,7.13,0,0,0,1.11-.62,5,5,0,0,0,1-.92,4.43,4.43,0,0,0,.7-1.27A5,5,0,0,0,69.11,70V69.9a4.32,4.32,0,0,0-1.24-3.09,5.89,5.89,0,0,0-2.12-1.26,8.82,8.82,0,0,0-2.94-.45H54.58V84.47h8.59a10.42,10.42,0,0,0,2.88-.36,6.51,6.51,0,0,0,2.22-1,4.52,4.52,0,0,0,1.42-1.66,4.78,4.78,0,0,0,.5-2.23v-.06a4.42,4.42,0,0,0-.33-1.76A4.36,4.36,0,0,0,69,76Zm-12.21-9h5.88a5.07,5.07,0,0,1,3.17.86,2.73,2.73,0,0,1,1.11,2.28v.06a3,3,0,0,1-1.23,2.58,5.45,5.45,0,0,1-3.22.87H56.77ZM68,79.05a3,3,0,0,1-1.27,2.55,5.9,5.9,0,0,1-3.48.91H56.77V75.67h6.1a7,7,0,0,1,3.84.87A2.79,2.79,0,0,1,68,79Z"/><polygon class="cls-1" points="74.84 65.1 74.84 84.48 88.99 84.48 88.99 82.51 77.03 82.51 77.03 75.7 87.61 75.7 87.61 73.73 77.03 73.73 77.03 67.06 88.85 67.06 88.85 65.1 74.84 65.1"/><polygon class="cls-1" points="92.28 65.1 92.28 67.12 98.79 67.12 98.79 84.48 100.98 84.48 100.98 67.12 107.48 67.12 107.48 65.1 92.28 65.1"/><path class="cls-1" d="M127.05,81.8a9.79,9.79,0,0,0,2-3.19,10.37,10.37,0,0,0,.72-3.82,0,0,0,0,0,0-.06,10.43,10.43,0,0,0-.7-3.81A9.53,9.53,0,0,0,124,65.57a9.72,9.72,0,0,0-4-.81,9.9,9.9,0,0,0-4,.82A9.66,9.66,0,0,0,110.75,71a10.3,10.3,0,0,0-.73,3.82v0a10.43,10.43,0,0,0,.71,3.81,9.56,9.56,0,0,0,2,3.18A9.41,9.41,0,0,0,115.85,84a9.77,9.77,0,0,0,4,.81,9.75,9.75,0,0,0,7.17-3Zm-7.11,1a7.35,7.35,0,0,1-3.06-.64,7.51,7.51,0,0,1-2.42-1.72,7.62,7.62,0,0,1-1.6-2.53,8.46,8.46,0,0,1-.56-3.11v-.06a8.33,8.33,0,0,1,.56-3.1,8,8,0,0,1,1.57-2.52,7.08,7.08,0,0,1,2.39-1.7,7.8,7.8,0,0,1,6.12,0,7.78,7.78,0,0,1,2.42,1.72A7.6,7.6,0,0,1,127,71.67a8.48,8.48,0,0,1,.57,3.12v0a8.33,8.33,0,0,1-.57,3.1,7.92,7.92,0,0,1-1.56,2.52,7,7,0,0,1-2.4,1.7A7.33,7.33,0,0,1,119.94,82.79Z"/><polygon class="cls-1" points="148.95 65.1 148.95 80.63 136.74 65.1 134.69 65.1 134.69 84.48 136.82 84.48 136.82 68.58 149.34 84.48 151.08 84.48 151.08 65.1 148.95 65.1"/><path class="cls-1" d="M173.62,81.84V74.12h-8v2h5.9V80.9a8.86,8.86,0,0,1-2.46,1.37,8.57,8.57,0,0,1-3.13.57,7.88,7.88,0,0,1-3.18-.61,6.91,6.91,0,0,1-2.41-1.69A7.52,7.52,0,0,1,158.79,78a9.24,9.24,0,0,1-.54-3.21v-.06a8.73,8.73,0,0,1,.55-3.06,8,8,0,0,1,1.53-2.53,7.24,7.24,0,0,1,2.32-1.72,7,7,0,0,1,3-.63,9.73,9.73,0,0,1,1.87.16,7.61,7.61,0,0,1,1.55.46,7.18,7.18,0,0,1,1.32.69,10.93,10.93,0,0,1,1.16.9l1.41-1.66a12.49,12.49,0,0,0-1.48-1.09,8.58,8.58,0,0,0-1.63-.82,9.77,9.77,0,0,0-1.88-.5,13.94,13.94,0,0,0-2.23-.17,9.39,9.39,0,0,0-7,3,10,10,0,0,0-2,3.2,10.43,10.43,0,0,0-.71,3.81v0a11,11,0,0,0,.68,3.89,9.29,9.29,0,0,0,2,3.17A9.07,9.07,0,0,0,161.73,84a10.25,10.25,0,0,0,4.11.78,10.93,10.93,0,0,0,4.44-.87A12.62,12.62,0,0,0,173.62,81.84Z"/><polygon class="cls-2" points="22.03 0 0 20.72 32.7 29.78 52.61 3.65 22.03 0"/><polygon class="cls-3" points="22.47 43.2 37.27 48.93 32.7 29.78 0 20.72 22.47 43.2"/><polygon class="cls-4" points="52.61 3.65 41.95 40.59 37.27 48.93 32.7 29.78 52.61 3.65"/><path class="cls-1" d="M68,45.76a7.73,7.73,0,0,0-2-1.19,19.72,19.72,0,0,0-2.69-.89c-.85-.23-1.56-.43-2.12-.6a6.14,6.14,0,0,1-1.32-.54,1.6,1.6,0,0,1-.67-.64,1.71,1.71,0,0,1-.19-.84V41a1.5,1.5,0,0,1,.64-1.24,3.12,3.12,0,0,1,1.92-.5,6.66,6.66,0,0,1,2.55.53,14.5,14.5,0,0,1,2.62,1.43l2.27-3.29a11.75,11.75,0,0,0-3.37-1.88,12,12,0,0,0-4-.65,8.61,8.61,0,0,0-2.8.43,6.31,6.31,0,0,0-2.19,1.22A5.64,5.64,0,0,0,55.24,39a5.74,5.74,0,0,0-.51,2.45v.06a5.79,5.79,0,0,0,.47,2.47,4.51,4.51,0,0,0,1.33,1.66,7.73,7.73,0,0,0,2.08,1.13,25.66,25.66,0,0,0,2.73.82c.84.21,1.51.41,2,.6a6.83,6.83,0,0,1,1.22.56,1.52,1.52,0,0,1,.6.62,1.73,1.73,0,0,1,.16.75v0a1.55,1.55,0,0,1-.76,1.38,3.8,3.8,0,0,1-2.11.5,7.57,7.57,0,0,1-3.14-.65,13.09,13.09,0,0,1-2.8-1.77L54,52.68a11.71,11.71,0,0,0,4,2.4,13.22,13.22,0,0,0,4.46.78,10.11,10.11,0,0,0,2.95-.41,6.64,6.64,0,0,0,2.29-1.19,5.48,5.48,0,0,0,1.5-1.93,6.15,6.15,0,0,0,.53-2.63v-.06a5.43,5.43,0,0,0-.41-2.24A4.52,4.52,0,0,0,68,45.76Z"/><path class="cls-1" d="M164.54,38.61a10.53,10.53,0,0,0-3.34-2.19,11.5,11.5,0,0,0-8.48,0,10.21,10.21,0,0,0-5.55,5.48,10.06,10.06,0,0,0-.8,4V46a10.21,10.21,0,0,0,.78,4,9.77,9.77,0,0,0,2.19,3.24,10.53,10.53,0,0,0,3.34,2.19,11.5,11.5,0,0,0,8.48,0,10.21,10.21,0,0,0,5.55-5.48,10,10,0,0,0,.8-4v-.06a10.22,10.22,0,0,0-.79-4A9.89,9.89,0,0,0,164.54,38.61ZM162.93,46a6.4,6.4,0,0,1-.44,2.4,6.27,6.27,0,0,1-1.22,2,5.57,5.57,0,0,1-1.89,1.33,6,6,0,0,1-2.41.48,5.83,5.83,0,0,1-2.43-.49,5.92,5.92,0,0,1-3.15-3.34A6.48,6.48,0,0,1,151,45.9v-.06a6.4,6.4,0,0,1,.44-2.4,6.27,6.27,0,0,1,1.22-2,5.59,5.59,0,0,1,1.87-1.33,6,6,0,0,1,2.43-.48,5.8,5.8,0,0,1,2.41.49,6,6,0,0,1,3.17,3.34,6.5,6.5,0,0,1,.44,2.42Z"/><path class="cls-1" d="M184.41,46a7.5,7.5,0,0,0-2-1.19,19.72,19.72,0,0,0-2.69-.89c-.86-.23-1.56-.43-2.12-.6a6.48,6.48,0,0,1-1.33-.54,1.73,1.73,0,0,1-.67-.64,1.86,1.86,0,0,1-.18-.84v0a1.5,1.5,0,0,1,.64-1.24,3.08,3.08,0,0,1,1.92-.5,6.66,6.66,0,0,1,2.55.53,15.2,15.2,0,0,1,2.62,1.43l2.27-3.29a11.64,11.64,0,0,0-3.37-1.88,12,12,0,0,0-4-.65,8.57,8.57,0,0,0-2.8.43,6.45,6.45,0,0,0-2.2,1.22,5.61,5.61,0,0,0-1.42,1.89,5.71,5.71,0,0,0-.51,2.45v.06a5.82,5.82,0,0,0,.47,2.47,4.6,4.6,0,0,0,1.33,1.66A7.45,7.45,0,0,0,175,47a23.45,23.45,0,0,0,2.73.83c.83.21,1.51.41,2,.6A5.78,5.78,0,0,1,181,49a1.72,1.72,0,0,1,.6.61,1.81,1.81,0,0,1,.16.76v.05a1.57,1.57,0,0,1-.76,1.38,3.83,3.83,0,0,1-2.11.5,7.39,7.39,0,0,1-3.14-.66,12.66,12.66,0,0,1-2.8-1.76l-2.59,3.1a11.84,11.84,0,0,0,4,2.4,13.22,13.22,0,0,0,4.46.78,10.11,10.11,0,0,0,2.95-.41,6.66,6.66,0,0,0,2.29-1.2,5.17,5.17,0,0,0,1.49-1.93,6.07,6.07,0,0,0,.54-2.62V49.9a5.6,5.6,0,0,0-.41-2.24A4.55,4.55,0,0,0,184.41,46Z"/></svg>